<svg version="1.1" xmlns="http://www.w3.org/2000/svg" style="display: block;" viewBox="0 0 2048 1528" width="614" height="458" preserveAspectRatio="none">
<path transform="translate(0,0)" fill="rgb(186,251,20)" d="M 61.2532 55.8861 C 65.2026 52.5322 70.0768 49.0589 75.3204 48.5184 C 112.149 44.7226 153.134 46.169 190.115 46.2309 L 390.026 46.0581 C 418.15 48.5475 423.67 53.5356 442.08 75.4479 C 469.839 108.489 495.058 143.547 521.922 177.23 L 790.202 518.848 C 800.838 532.439 910.968 674.956 916.691 677.743 C 926.855 674.014 943.352 647.178 951.634 639.104 C 956.041 630.091 996.417 583.42 1004.13 574.779 C 1007.8 568.635 1023.13 550.824 1028.48 544.41 C 1031.52 540 1040.48 529.89 1044.22 525.502 C 1088.6 471.257 1132.68 416.761 1176.45 362.017 C 1191.65 343.09 1207.45 324.712 1222.58 305.767 C 1242.67 281.508 1270.12 243.876 1291.27 221.707 C 1295.52 215.515 1328.26 174.545 1333.28 169.647 C 1339.34 159.908 1406.26 81.5812 1414.68 74.8804 C 1448.49 41.5128 1479.46 47.1089 1523.41 47.1749 L 1608.78 47.1168 L 1951.03 47.3409 C 1974.01 47.5059 1995.64 48.0026 1999.2 76.4366 C 2002.07 99.2972 2000.84 121.941 2001.26 144.936 C 2001.14 159.72 2002.24 183.974 2001.16 197.982 C 2001.98 211.571 2001.6 228.256 2001.63 242.052 L 2001.75 316.723 C 2001.8 348.559 2002.79 381.365 2000.16 412.961 C 1998.3 435.471 1974.94 439.6 1956.72 439.54 C 1890 439.321 1823.06 439.566 1756.37 438.72 C 1749.39 438.631 1740.39 435.641 1734.61 431.642 C 1716.77 421.043 1719.42 361.951 1721.92 342.974 C 1721.73 341 1722.12 338.688 1722.33 336.653 C 1724.62 335.826 1728 330.597 1729.7 328.34 L 1713.64 329.109 L 1540.51 329.215 C 1531.71 329.152 1494.22 330.544 1488.81 327.853 L 1487.78 328.6 C 1488.66 334.859 1490.16 336.721 1491.13 341.968 C 1493.19 354.821 1492.54 398.661 1492.59 413.483 C 1493.16 465.936 1492.73 518.394 1491.31 570.83 C 1514.43 572.473 1545.88 571.7 1569.97 571.843 C 1623.05 572.094 1676.13 572.058 1729.21 571.736 C 1758.49 571.584 1788.43 570.152 1817.41 572.453 C 1834.54 573.812 1844.61 589.832 1844.47 605.669 C 1843.94 669.351 1847.72 738.064 1844.68 801.395 C 1845.17 847.934 1834.47 855.058 1788.18 855.017 L 1704.2 854.905 C 1690.76 854.896 1673.6 855.372 1660.42 854.787 L 1550.45 855.253 C 1537.42 855.285 1503.41 855.97 1492.03 854.211 C 1493.1 898.194 1493 942.508 1493.04 986.539 C 1493.07 1015.31 1494.74 1056.35 1492.68 1084.57 C 1509.72 1086 1535.36 1085.38 1553.15 1085.46 L 1671.28 1085.74 C 1685.19 1085.83 1701.6 1085.36 1715.19 1085.87 C 1717.57 1085.46 1718.39 1085.18 1720.63 1084.47 C 1721.92 1078.87 1721.34 1069.99 1721.39 1063.95 C 1721.52 1044.39 1719.62 1024.57 1724.48 1005.42 C 1728.34 995.397 1733.01 985.699 1744.77 984.324 C 1787.76 979.298 1833.41 982.776 1876.7 981.914 C 1907.02 981.31 1936.17 982.195 1966.31 983.229 C 1985.86 984.29 1999.46 992.349 2001.04 1013.53 C 2003.11 1041.2 2002.19 1069.15 2002.42 1096.88 C 2003.03 1146.26 2003.22 1195.65 2003 1245.03 C 2002.94 1263.64 2003.63 1339.59 2000.18 1350.66 C 1996.48 1365.21 1988.63 1370.76 1973.74 1372.24 C 1955.58 1374.05 1937.11 1373.17 1918.87 1373.68 C 1905.88 1373.61 1880.82 1374.55 1868.76 1373.12 C 1857.26 1373.83 1839.47 1373.17 1827.33 1373.1 L 1752.99 1372.9 C 1696.93 1372.94 1632.71 1374.68 1577.13 1373.12 C 1553.44 1374.95 1515.35 1373.9 1490.63 1373.94 L 1355.25 1374.46 C 1338.64 1374.4 1289.43 1372.66 1275.56 1375.9 L 1274.72 1376.71 C 1247.36 1403.45 1213.98 1457.07 1179.74 1476.89 C 1171.32 1481.76 1157.79 1482.39 1148.16 1482.31 C 1147.64 1482.31 1147.11 1482.3 1146.58 1482.28 L 1043.95 1482.44 C 1032.68 1482.48 1022.18 1482.64 1011.7 1478.16 C 1009.86 1477.29 1008.12 1476.22 1006.51 1474.99 C 998.143 1468.71 996.422 1458.62 995.147 1449.07 C 993.16 1431.3 993.095 1401.12 992.995 1383.08 L 992.803 1293.09 L 993.059 1171.92 C 992.988 1142.91 992.332 1112.37 993.071 1083.58 C 992.546 1056.83 994.198 1024.76 992.381 998.794 C 984.993 1009.62 976.104 1019.39 968.05 1029.74 C 946.727 1057.16 923.932 1083.5 902.192 1110.55 C 880.092 1138.61 857.728 1166.45 835.1 1194.08 C 820.175 1212.64 787.313 1267.65 758.005 1243.41 C 746.116 1233.58 720.801 1202.53 712.64 1188.84 C 708.529 1183.81 704.033 1178.56 700.439 1173.2 C 695.279 1167.5 689.066 1159.52 684.388 1153.33 C 652.167 1110.71 618.298 1069.36 585.376 1027.34 C 578.703 1018.21 571.873 1010.43 564.209 1002.12 C 560.562 1006.91 562.823 1023.52 562.882 1030.59 C 563.02 1046.88 563.141 1063.23 562.966 1079.54 C 562.899 1086.41 563.559 1100.91 562.716 1106.71 C 563.104 1120.47 563.339 1134.39 563.21 1148.15 C 562.442 1230.55 565.968 1315.06 562.73 1397.3 C 563.19 1413.04 561.812 1428.69 562.35 1445.26 C 563.986 1495.6 504.505 1481.44 470.376 1483.2 C 451.339 1484.19 381.651 1485.27 369.799 1475.4 C 337.129 1448.19 303.598 1405.48 274.036 1373.95 C 248.978 1347.18 225.012 1321.98 201.798 1295.72 C 186.945 1281.15 163.355 1254.25 149.432 1238.35 C 124.577 1212.74 101.063 1184.6 76.1734 1158.86 C 58.7639 1140.85 52.2906 1129.67 50.7148 1104.71 C 54.3826 1108.79 53.986 1113.45 54.573 1119.42 C 55.212 1116.09 55.0409 1113.2 55.0262 1109.81 C 56.3212 1112.19 56.434 1113.76 56.9229 1116.39 C 56.4936 1042.83 56.4926 969.267 56.9197 895.705 L 57.0155 452.261 C 57.0107 407.421 58.4396 362.744 53.7498 318.259 C 52.9299 310.481 52.5491 287.594 53.3261 279.907 C 55.7867 255.563 56.6653 235.001 56.7903 210.496 L 57.1514 119.484 C 57.2592 107.651 57.1686 93.1536 57.8049 81.4401 C 57.9747 78.3146 63.3316 61.9027 64.5539 58.0677 C 62.0375 57.2796 63.1333 57.9297 61.2532 55.8861 z M 526.607 637.292 C 519.146 629.272 510.99 618.124 504.164 609.263 C 500.48 605.241 496.446 599.835 493.005 595.462 C 486.673 587.665 476.072 574.856 470.664 566.811 C 462.245 557.726 453.45 545.515 445.485 535.716 L 386.991 463.115 C 373.047 445.896 360.048 429.346 344.664 413.323 C 343.216 415.982 342.755 418.338 342.705 421.317 C 342.043 460.533 342.182 500.268 342.121 539.467 L 341.821 776.743 C 341.747 795.446 342.526 823.546 341.142 841.465 C 341.573 854.68 341.659 868.744 341.39 881.955 C 340.95 903.549 342.239 926.049 341.156 947.49 C 342.09 959.826 341.669 976.398 341.65 988.994 L 341.573 1058.55 L 342.181 1267.43 C 342.158 1286.73 340.61 1340.59 343.466 1357.19 C 344.73 1364.55 392.138 1412.83 400.336 1421.15 C 420.572 1422.91 440.934 1421.14 460.551 1422.14 C 473.122 1421.59 487.513 1422 500.345 1421.88 L 501.419 1071.35 L 501.16 968.476 C 501.152 948.548 500.788 928.286 502.331 908.403 C 503.735 890.302 514.709 881.535 532.476 881.813 C 538.014 883.135 546.434 886.083 550.428 890.225 C 566.977 907.387 580.232 927.89 594.913 946.735 C 649.861 1017.27 705.538 1087.22 761.141 1157.22 C 764.814 1161.84 769.965 1166.63 774.61 1170.32 C 782.388 1164.65 785.848 1159.6 790.939 1155.64 C 805.413 1136.79 823.318 1117 838.005 1097.64 C 843.614 1090.25 865.841 1062.05 871.279 1056.87 C 893.582 1026.72 920.202 996.989 943.551 967.478 L 980.641 920.259 C 993.053 904.46 1011.09 874.071 1034.74 884.073 C 1048.73 889.988 1053.18 899.257 1053.69 913.965 C 1054.95 943.289 1054.44 972.772 1054.48 1002.15 L 1055.14 1149.02 L 1055.6 1320.42 C 1055.6 1351.25 1056.45 1391.62 1054.18 1421.72 C 1075.91 1421.5 1108.31 1420.85 1129.83 1421.95 C 1136.82 1421.66 1150.31 1423.18 1155.43 1418.63 C 1175.01 1401.21 1197.1 1375.4 1214.43 1355.76 L 1338.22 1213.17 C 1359.24 1188.81 1388.07 1153.38 1410.35 1131.86 C 1416.06 1124.65 1424.04 1118.47 1428.28 1110.19 C 1434.29 1098.45 1430.74 1036.81 1431.18 1019.32 C 1430.27 999.047 1431.06 974.128 1431.27 953.718 C 1430.81 945.995 1430.5 911.358 1430.95 903.343 C 1432.37 878.176 1425.05 820.45 1441.86 803.447 C 1453.85 791.384 1484.34 794.139 1501 794.136 L 1559.64 794.16 C 1618.39 794.126 1680.93 792.93 1739.24 794.261 C 1749.24 793.414 1769.91 793.901 1781.01 793.707 C 1781.2 739.044 1781.78 687.034 1781.04 632.113 C 1777.21 632.046 1773.12 632.201 1769.26 632.277 C 1770.75 631.843 1777.38 627.766 1779.78 626.625 C 1777.59 625.929 1771.92 625.809 1769.37 625.668 C 1771.29 624.483 1774.58 624.349 1777.02 623.998 L 1661.37 624.714 C 1646.48 624.671 1630.73 623.696 1616 624.14 C 1565.08 625.675 1511.44 627.664 1460.59 624.836 C 1469.69 628.154 1477.72 630.104 1486.64 632.856 C 1471.67 633.416 1453.1 633.101 1441.51 622.419 C 1436.27 617.818 1434.2 612.468 1432.92 605.864 C 1429.91 594.284 1430.31 531.346 1430.93 516.549 C 1430.23 510.959 1430.51 491.784 1430.56 485.494 C 1430.71 467.098 1430.03 446.898 1431.02 428.623 C 1429.87 401.845 1431.44 373.196 1430.77 346.203 C 1430.42 332.197 1430 303.996 1436.06 291.931 C 1449.32 271.69 1468.41 274.78 1490.14 274.66 C 1499.77 274.607 1509.46 274.936 1519.09 275.018 L 1621.72 275.384 C 1646.99 275.268 1674.25 274.627 1699.37 275.218 C 1787.89 274.22 1785.41 276.754 1784.54 366.148 C 1784.5 370.156 1783.63 373.514 1785.24 377.237 C 1786.39 377.801 1787.57 378.442 1788.76 378.858 C 1804.89 379.692 1822.14 379.696 1838.32 379.363 C 1870.06 378.711 1902.01 379.38 1933.71 378.75 L 1936.85 377.35 C 1939.56 367.915 1937.1 303.683 1937.12 289.386 L 1937.29 184.975 C 1937.54 160.671 1938.63 132.97 1937.67 109.026 C 1898.75 109.897 1857.43 109.185 1818.22 109.176 L 1593.51 109.073 L 1517.78 108.854 C 1502.92 108.755 1485.47 107.967 1470.89 109.856 C 1461.12 111.123 1452.51 120.273 1445.84 127.362 C 1416.41 158.616 1390.26 192.929 1363.15 226.189 L 1220.02 403.698 C 1135.79 509.007 1046.91 612.355 962.238 717.851 L 847.321 859.148 C 831.099 878.924 816.04 899.783 798.749 918.602 C 785.147 933.406 767.482 935.347 752.573 921.177 C 741.328 910.664 717.342 878.44 706.812 865.044 L 623.086 759.095 L 556.917 675.968 C 550.436 667.865 530.317 643.925 526.607 637.292 z M 279.03 1012.4 C 278.317 1006.5 278.674 989.299 278.679 982.867 L 278.753 923.786 L 278.769 736.674 L 278.936 440.541 L 278.954 359.911 C 278.917 341.741 275.921 313.665 284.72 298.322 C 290.843 291.862 293.257 290.682 301.529 287.315 C 312.602 286.518 321.724 287.732 329.847 295.983 C 341.544 307.866 353.916 325.305 364.304 338.835 C 381.961 361.638 399.744 384.342 417.653 406.946 L 671.125 726.234 C 694.512 755.5 716.64 785.318 740.064 814.477 C 749.799 826.595 762.798 843.998 773.547 854.654 L 782.337 846.754 C 808.389 816.853 832.159 783.572 857.699 754.478 C 861.724 747.414 872.228 737.337 878.418 726.31 C 873.937 716.513 849.455 687.886 841.56 677.873 L 758.028 571.416 C 747.906 560.441 732.359 539.231 722.755 526.945 L 666.87 456.458 L 481.145 221.032 L 435.634 162.446 C 424.619 148.207 403.677 118.374 390.094 109.138 C 370.291 107.969 348.478 108.24 328.549 108.679 C 257.688 110.239 186.328 107.833 115.548 108.855 L 115.96 417.054 L 115.837 882.949 L 115.648 1023.95 C 115.611 1039.02 113.297 1100.1 116.748 1109.86 C 120.925 1121.67 200.239 1202.39 217.243 1221.37 C 231.14 1236.61 261.358 1271.6 276.108 1284.25 C 276.584 1278.2 277.209 1271.88 277.141 1265.84 C 276.959 1256.95 277.793 1243.99 277.938 1234.58 L 278.787 1159.06 C 279.035 1111.31 277.568 1059.74 279.03 1012.4 z M 1474.67 1146.78 C 1462.26 1158.44 1443.41 1183.71 1431.57 1197.87 L 1352.56 1290.9 C 1346.88 1297.18 1341.38 1303.39 1337.48 1311.02 C 1342.08 1311.49 1347.56 1312.24 1352.08 1312.11 C 1359.96 1312.55 1367.85 1312.82 1375.74 1312.93 C 1451.27 1311.94 1529.1 1312.86 1604.8 1312.93 C 1626.31 1312.94 1647.83 1312.83 1669.33 1312.62 C 1676.84 1312.56 1696.64 1312.01 1703.09 1312.87 C 1732.3 1311.67 1763.97 1312.21 1793.3 1312.21 L 1927.76 1311.95 C 1930.27 1311.59 1934.7 1311.32 1936.47 1309.86 C 1937.31 1295.53 1936.9 1281.09 1937.04 1266.71 C 1937.41 1241.8 1937.63 1216.88 1937.7 1191.96 C 1937.82 1143.22 1938.73 1091.41 1937.75 1042.92 C 1927.71 1042.66 1917.45 1042.96 1907.28 1042.75 C 1871.9 1043.47 1818.95 1044.37 1784.32 1042.18 C 1784.65 1057.43 1785.24 1073.16 1785.29 1088.39 C 1785.44 1128.61 1784.11 1144.49 1740 1145.32 C 1663.25 1146.26 1586.49 1146.36 1509.74 1145.61 C 1499.69 1145.56 1484.05 1145.08 1474.67 1146.78 z"/>
<path transform="translate(0,0)" fill="rgb(132,212,26)" d="M 390.026 46.0581 C 418.15 48.5475 423.67 53.5356 442.08 75.4479 C 469.839 108.489 495.058 143.547 521.922 177.23 L 790.202 518.848 C 800.838 532.439 910.968 674.956 916.691 677.743 C 926.855 674.014 943.352 647.178 951.634 639.104 C 950.625 642.1 949.995 643.962 948.591 646.802 L 948.285 647.412 C 950.131 645.782 951.612 644.407 953.358 642.667 C 948.08 653.61 925.065 680.096 916.322 690.536 C 913.268 687.105 910.531 683.655 907.716 680.026 C 891.105 658.609 873.915 637.716 857.239 616.343 L 776.7 513.865 L 536.868 208.421 C 509.451 173.854 483.229 138.776 454.793 105.165 C 442.076 90.1326 430.791 72.9576 415.679 59.4973 C 408.718 53.2976 399.05 51.2891 390.026 46.0581 z"/>
<path transform="translate(0,0)" fill="rgb(132,212,26)" d="M 715.06 1183.22 C 728.16 1198.19 739.246 1215.95 752.57 1230.74 C 757.077 1235.74 763.903 1240.66 770.7 1240.67 C 776.525 1240.8 784.718 1239.3 789.093 1235.16 C 803.926 1221.13 816.385 1202.99 829.228 1187.14 L 946.222 1043.11 L 975.936 1006.45 C 980.394 1000.88 988.301 987.277 995.189 987.782 C 1003.36 994.614 999.295 1041.66 998.674 1053.46 C 998.514 1056.49 995.121 1060.17 994.726 1063.52 C 993.908 1070.48 994.771 1076.71 993.071 1083.58 C 992.546 1056.83 994.198 1024.76 992.381 998.794 C 984.993 1009.62 976.104 1019.39 968.05 1029.74 C 946.727 1057.16 923.932 1083.5 902.192 1110.55 C 880.092 1138.61 857.728 1166.45 835.1 1194.08 C 820.175 1212.64 787.313 1267.65 758.005 1243.41 C 746.116 1233.58 720.801 1202.53 712.64 1188.84 C 708.529 1183.81 704.033 1178.56 700.439 1173.2 C 701.686 1171.89 701.599 1171.98 702.206 1170.27 L 699.835 1166.2 L 700.285 1164.57 C 704.376 1169.62 711.667 1178.08 715.06 1183.22 z"/>
<path transform="translate(0,0)" fill="rgb(150,230,23)" d="M 201.798 1295.72 C 201.12 1292.87 200.355 1292.04 201.244 1289.85 L 204.888 1290.47 C 216.735 1301.49 226.759 1314.01 237.579 1325.98 C 248.704 1338.29 260.793 1349.7 272.015 1361.93 C 289.138 1380.59 361.87 1465.11 378.966 1472.45 C 384.715 1474.91 391.433 1475.51 397.545 1476.69 C 405.748 1478.27 414.081 1480.64 422.351 1481.55 C 441.062 1483.6 472.702 1482.5 492.186 1481.67 C 504.454 1481.14 539.287 1476.1 546.93 1467.21 C 555.306 1457.48 554.48 1444.44 558.506 1432.98 L 558.465 1437.94 C 562.154 1426.5 559.985 1400.51 562.73 1397.3 C 563.19 1413.04 561.812 1428.69 562.35 1445.26 C 563.986 1495.6 504.505 1481.44 470.376 1483.2 C 451.339 1484.19 381.651 1485.27 369.799 1475.4 C 337.129 1448.19 303.598 1405.48 274.036 1373.95 C 248.978 1347.18 225.012 1321.98 201.798 1295.72 z"/>
<path transform="translate(0,0)" fill="rgb(132,212,26)" d="M 1276.02 1365.16 C 1282.18 1364.81 1354.69 1365.25 1356.79 1367.81 C 1344.43 1368.84 1328.5 1365.97 1316.43 1367.41 L 1317.23 1369.19 C 1331.39 1376.37 1539.31 1368.76 1577.13 1373.12 C 1553.44 1374.95 1515.35 1373.9 1490.63 1373.94 L 1355.25 1374.46 C 1338.64 1374.4 1289.43 1372.66 1275.56 1375.9 L 1274.72 1376.71 C 1247.36 1403.45 1213.98 1457.07 1179.74 1476.89 C 1171.32 1481.76 1157.79 1482.39 1148.16 1482.31 C 1147.64 1482.31 1147.11 1482.3 1146.58 1482.28 C 1146.9 1481.76 1147.21 1481.23 1147.56 1480.72 C 1150.83 1475.94 1175.24 1473.72 1186.87 1463.72 C 1194.87 1456.84 1201.85 1447.68 1208.93 1439.84 C 1223.56 1423.64 1238.34 1407.49 1252.56 1390.93 C 1259.66 1382.66 1266.94 1371.12 1276.02 1365.16 z"/>
<path transform="translate(0,0)" fill="rgb(132,212,26)" d="M 1044.22 525.502 C 1088.6 471.257 1132.68 416.761 1176.45 362.017 C 1191.65 343.09 1207.45 324.712 1222.58 305.767 L 1226.48 310.116 C 1211.22 330.851 1191.06 353.165 1174.65 373.623 C 1132.78 426.483 1090.3 478.858 1047.22 530.738 L 1044.22 525.502 z"/>
<path transform="translate(0,0)" fill="rgb(132,212,26)" d="M 2001.16 197.982 C 2001.98 211.571 2001.6 228.256 2001.63 242.052 L 2001.75 316.723 C 2001.8 348.559 2002.79 381.365 2000.16 412.961 C 1998.3 435.471 1974.94 439.6 1956.72 439.54 C 1890 439.321 1823.06 439.566 1756.37 438.72 C 1749.39 438.631 1740.39 435.641 1734.61 431.642 C 1738.56 431.127 1742.33 430.82 1746.28 430.492 C 1752.88 432.298 1758.34 431.527 1764.09 434.55 C 1766.81 435.981 1771.45 437.498 1774.58 437.562 C 1795.09 437.978 1816.4 437.482 1836.87 437.19 L 1964.43 435.334 L 1964.83 433.354 C 1960.45 431.596 1943.03 435.237 1935.34 432.803 C 1945.14 430.377 1964.77 433.283 1976.44 428.425 C 1996.56 420.05 1991.12 395.398 1994.82 385.972 C 1995.81 393.778 1992.8 404.161 1993.97 412.143 L 1996.21 412.838 C 2004.33 402.767 1998.5 226.272 2001.05 199.097 L 2001.16 197.982 z"/>
<path transform="translate(0,0)" fill="rgb(150,230,23)" d="M 552.722 979.229 C 567.516 993.37 573.508 1002.39 585.231 1019.18 C 612.004 1051.24 638.575 1084.39 664.199 1117.36 C 668.489 1122.88 698.089 1160.08 700.285 1164.57 L 699.835 1166.2 L 702.206 1170.27 C 701.599 1171.98 701.686 1171.89 700.439 1173.2 C 695.279 1167.5 689.066 1159.52 684.388 1153.33 C 652.167 1110.71 618.298 1069.36 585.376 1027.34 C 578.703 1018.21 571.873 1010.43 564.209 1002.12 C 562.325 996.655 559.112 993.428 555.406 988.993 C 555.308 994.02 555.401 1002.33 554.907 1007.09 C 553.722 997.483 553.833 988.583 552.722 979.229 z"/>
<path transform="translate(0,0)" fill="rgb(150,230,23)" d="M 50.7148 1104.71 C 54.3826 1108.79 53.986 1113.45 54.573 1119.42 C 55.212 1116.09 55.0409 1113.2 55.0262 1109.81 C 56.3212 1112.19 56.434 1113.76 56.9229 1116.39 C 57.7736 1121.6 62.0746 1135.64 65.5157 1139.19 C 90.401 1164.91 114.925 1190.9 138.27 1218.04 C 142.151 1222.56 151.925 1231.26 154.499 1235.96 C 152.294 1236.74 151.425 1237.25 149.432 1238.35 C 124.577 1212.74 101.063 1184.6 76.1734 1158.86 C 58.7639 1140.85 52.2906 1129.67 50.7148 1104.71 z"/>
<path transform="translate(0,0)" fill="rgb(132,212,26)" d="M 1291.27 221.707 C 1295.97 220.357 1295.24 219.719 1298.76 221.185 C 1290.08 232.257 1280.68 242.65 1271.95 253.637 C 1257.14 272.287 1242.16 292.263 1226.48 310.116 L 1222.58 305.767 C 1242.67 281.508 1270.12 243.876 1291.27 221.707 z"/>
<path transform="translate(0,0)" fill="rgb(150,230,23)" d="M 1333.28 169.647 C 1339.34 159.908 1406.26 81.5812 1414.68 74.8804 C 1414.65 75.8077 1414.61 76.9369 1414.57 78.2679 C 1409.36 83.881 1394.59 98.2316 1392 105.078 L 1398.13 98.6721 C 1390.87 110.224 1378.49 123.869 1369.62 134.655 C 1360.41 145.86 1349.49 160.292 1339.44 170.323 L 1338.18 169.655 C 1335.85 170.14 1335.53 170.437 1333.28 169.647 z"/>
<path transform="translate(0,0)" fill="rgb(150,230,23)" d="M 1715.19 1085.87 C 1717.57 1085.46 1718.39 1085.18 1720.63 1084.47 C 1721.92 1078.87 1721.34 1069.99 1721.39 1063.95 C 1721.52 1044.39 1719.62 1024.57 1724.48 1005.42 C 1727.94 1016.82 1730.19 1075.16 1728.56 1087.49 L 1727.81 1088.5 C 1721.82 1087.86 1720.62 1086.11 1715.19 1085.87 z"/>
<path transform="translate(0,0)" fill="rgb(132,212,26)" d="M 555.406 988.993 C 559.112 993.428 562.325 996.655 564.209 1002.12 C 560.562 1006.91 562.823 1023.52 562.882 1030.59 C 563.02 1046.88 563.141 1063.23 562.966 1079.54 C 562.899 1086.41 563.559 1100.91 562.716 1106.71 C 561.901 1105.73 559.727 1063.58 559.336 1058.4 C 558.085 1041.84 554.942 1023.53 554.907 1007.09 C 555.401 1002.33 555.308 994.02 555.406 988.993 z"/>
<path transform="translate(0,0)" fill="rgb(132,212,26)" d="M 1660.42 854.787 C 1668.25 852.534 1681.3 853.945 1688.69 853.637 C 1705.82 852.924 1812.42 856.127 1819.32 849.634 L 1818.73 847.953 C 1812.79 847.966 1795.29 850.623 1790.29 848.421 C 1806.62 847.301 1824.99 848.628 1833.92 833.62 C 1837.1 828.274 1834.56 825.915 1837.27 823.075 L 1838.23 823.593 C 1838.19 830.712 1831.83 835.636 1834.38 841.653 L 1835.87 840.688 C 1841.6 830.971 1842.24 812.962 1844.49 802.267 L 1844.68 801.395 C 1845.17 847.934 1834.47 855.058 1788.18 855.017 L 1704.2 854.905 C 1690.76 854.896 1673.6 855.372 1660.42 854.787 z"/>
<path transform="translate(0,0)" fill="rgb(132,212,26)" d="M 1868.76 1373.12 C 1872.16 1372.55 1876.44 1372.42 1879.92 1372.53 C 1905.71 1373.34 1931.11 1370.88 1956.85 1370.66 C 1960.59 1370.63 1971.25 1371.27 1972.75 1368.34 C 1969.73 1364.64 1937.84 1368.97 1934.65 1366.88 C 1936.7 1365.24 1970.71 1365.85 1977.19 1363.66 C 1987.64 1360.13 1984.7 1360.88 1992.59 1352.99 L 1993.81 1353.09 C 1993.65 1355.25 1993.51 1355.44 1994.03 1357.51 C 1996.17 1354.47 1996.76 1353.63 1999.57 1351.18 L 2000.18 1350.66 C 1996.48 1365.21 1988.63 1370.76 1973.74 1372.24 C 1955.58 1374.05 1937.11 1373.17 1918.87 1373.68 C 1905.88 1373.61 1880.82 1374.55 1868.76 1373.12 z"/>
<path transform="translate(0,0)" fill="rgb(132,212,26)" d="M 149.432 1238.35 C 151.425 1237.25 152.294 1236.74 154.499 1235.96 C 171.769 1254.75 188.06 1270.94 204.888 1290.47 L 201.244 1289.85 C 200.355 1292.04 201.12 1292.87 201.798 1295.72 C 186.945 1281.15 163.355 1254.25 149.432 1238.35 z"/>
<path transform="translate(0,0)" fill="rgb(132,212,26)" d="M 1291.27 221.707 C 1295.52 215.515 1328.26 174.545 1333.28 169.647 C 1335.53 170.437 1335.85 170.14 1338.18 169.655 L 1339.44 170.323 C 1326.39 187.334 1313.05 205.286 1298.76 221.185 C 1295.24 219.719 1295.97 220.357 1291.27 221.707 z"/>
<path transform="translate(0,0)" fill="rgb(150,230,23)" d="M 1721.92 342.974 L 1722.04 344.163 C 1724.58 371.524 1714.51 415.414 1746.28 430.492 C 1742.33 430.82 1738.56 431.127 1734.61 431.642 C 1716.77 421.043 1719.42 361.951 1721.92 342.974 z"/>
<path transform="translate(0,0)" fill="rgb(150,230,23)" d="M 1028.48 544.41 C 1030.14 545.539 1031.45 546.878 1033.12 546.898 C 1030.8 550.595 1004.93 582.507 1002.2 583.896 C 1004.41 579.136 1014.22 567.692 1018.01 563.382 L 1017.57 562.737 C 1011.33 566.449 1010.43 572.187 1004.13 574.779 C 1007.8 568.635 1023.13 550.824 1028.48 544.41 z"/>
<path transform="translate(0,0)" fill="rgb(150,230,23)" d="M 995.147 1449.07 C 1003.65 1457.51 1002.85 1468.98 1016.06 1473.88 L 1011.7 1478.16 C 1009.86 1477.29 1008.12 1476.22 1006.51 1474.99 C 998.143 1468.71 996.422 1458.62 995.147 1449.07 z"/>
<path transform="translate(0,0)" fill="rgb(150,230,23)" d="M 1016.06 1473.88 C 1027.51 1476.48 1034.47 1475.93 1043.95 1482.44 C 1032.68 1482.48 1022.18 1482.64 1011.7 1478.16 L 1016.06 1473.88 z"/>
<path transform="translate(0,0)" fill="rgb(150,230,23)" d="M 1044.22 525.502 L 1047.22 530.738 C 1043.02 537.088 1037.11 541.443 1033.12 546.898 C 1031.45 546.878 1030.14 545.539 1028.48 544.41 C 1031.52 540 1040.48 529.89 1044.22 525.502 z"/>
<path transform="translate(0,0)" fill="rgb(186,251,20)" d="M 1221.85 1169.33 C 1218.38 1172.95 1216.69 1176.04 1211.36 1174.71 C 1207.95 1169.88 1209.05 1139.88 1209 1132.5 L 1208.65 1027.85 L 1209 757.342 C 1209.02 708.48 1208.76 659.529 1208.95 610.673 C 1208.98 602.508 1209.33 592.194 1212.57 585.04 C 1218.45 572.05 1255.27 522.668 1265.9 518.879 L 1267.38 519.743 C 1269.91 524.994 1270.09 531.413 1270.11 537.183 C 1270.23 575.746 1269.77 614.375 1269.74 652.934 L 1270.29 877.953 L 1270.33 1021.93 C 1270.24 1042.32 1271.01 1078.07 1268.89 1097.32 C 1269.72 1111.57 1260.34 1123.38 1251.13 1133.41 C 1241.55 1143.85 1231.47 1159.74 1221.85 1169.33 z"/>
<path transform="translate(0,0)" fill="rgb(132,212,26)" d="M 1221.85 1169.33 C 1221.98 1168.67 1222.11 1168.01 1222.24 1167.36 L 1222.45 1166.46 C 1224.89 1155.46 1241.55 1143.33 1242.74 1136.75 L 1241.7 1135.85 C 1236.85 1142 1230.36 1150.18 1224.66 1155.45 C 1228.49 1145.68 1247.76 1126.61 1254.54 1117.03 C 1256.17 1114.72 1261.72 1105.14 1262.67 1104.44 L 1266.5 1105.52 C 1267.7 1102.45 1266.58 1099.76 1268.89 1097.32 C 1269.72 1111.57 1260.34 1123.38 1251.13 1133.41 C 1241.55 1143.85 1231.47 1159.74 1221.85 1169.33 z"/>
<path transform="translate(0,0)" fill="rgb(132,212,26)" d="M 103.83 97.6526 C 128.385 100.004 159.649 98.8759 184.972 98.8914 L 320.078 99.013 C 341.842 99.014 365.332 98.5441 387.084 99.483 C 391.709 99.606 398.751 104.009 401.524 107.706 C 438.37 156.837 477.012 204.787 515.164 252.921 L 646.781 420.879 C 685.84 470.302 727.29 520.791 765.149 571.036 C 769.973 575.364 773.718 580.908 777.747 585.99 C 795.091 607.868 811.759 630.381 829.099 652.25 C 841.331 667.657 853.686 682.964 866.165 698.172 C 871.732 704.964 881.928 716.392 886.279 723.158 C 884.701 732.381 862.697 756.445 855.394 765.152 L 854.496 762.682 C 855.83 759.881 856.316 759.197 858.151 756.666 L 857.699 754.478 C 861.724 747.414 872.228 737.337 878.418 726.31 C 873.937 716.513 849.455 687.886 841.56 677.873 L 758.028 571.416 C 747.906 560.441 732.359 539.231 722.755 526.945 L 666.87 456.458 L 481.145 221.032 L 435.634 162.446 C 424.619 148.207 403.677 118.374 390.094 109.138 C 370.291 107.969 348.478 108.24 328.549 108.679 C 257.688 110.239 186.328 107.833 115.548 108.855 L 115.96 417.054 L 115.837 882.949 L 115.648 1023.95 C 115.611 1039.02 113.297 1100.1 116.748 1109.86 C 120.925 1121.67 200.239 1202.39 217.243 1221.37 C 231.14 1236.61 261.358 1271.6 276.108 1284.25 C 276.584 1278.2 277.209 1271.88 277.141 1265.84 C 276.959 1256.95 277.793 1243.99 277.938 1234.58 L 278.787 1159.06 C 279.035 1111.31 277.568 1059.74 279.03 1012.4 C 280.59 1018.02 280.283 1023.75 280.28 1029.42 C 280.274 1042.63 281.824 1061.31 282.595 1074 C 283.796 1093.75 281.552 1254.17 283.967 1256.71 C 285.068 1274.23 284.759 1291.14 284.422 1308.64 C 274.795 1299.45 266.502 1289.63 257.499 1279.89 L 204.001 1221.17 C 177.331 1191.31 149.471 1162.74 122.806 1132.91 C 116.308 1125.65 109.766 1118.54 103.085 1111.44 C 105.683 1063.82 104.789 1008.03 104.785 960.02 L 104.347 678.45 L 104.284 294.829 L 104.281 173.975 C 104.342 149.613 105.119 121.721 103.83 97.6526 z"/>
<path transform="translate(0,0)" fill="rgb(132,212,26)" d="M 759.877 919.567 C 773.667 926.225 782.441 924.004 792.567 913.171 C 807.156 897.564 819.697 880.21 832.873 863.412 C 854.674 835.672 876.765 808.161 899.141 780.883 L 1250.89 350.336 L 1372.54 200.098 C 1396.22 171.251 1419.01 141.444 1445.61 115.174 C 1450.53 110.314 1460.21 101.599 1467.15 100.825 C 1483.38 99.0154 1501.9 99.3179 1518.29 99.1824 L 1617.1 98.7133 L 1849.8 98.793 C 1881.68 98.7977 1915.35 97.9597 1946.88 98.3164 L 1947.05 288.21 L 1947.01 343.356 C 1947 354.143 1947.42 370.803 1945.78 380.999 L 1944.2 382.075 C 1939.76 381.981 1938.54 380.125 1934.34 378.925 L 1933.71 378.75 L 1936.85 377.35 C 1939.56 367.915 1937.1 303.683 1937.12 289.386 L 1937.29 184.975 C 1937.54 160.671 1938.63 132.97 1937.67 109.026 C 1898.75 109.897 1857.43 109.185 1818.22 109.176 L 1593.51 109.073 L 1517.78 108.854 C 1502.92 108.755 1485.47 107.967 1470.89 109.856 C 1461.12 111.123 1452.51 120.273 1445.84 127.362 C 1416.41 158.616 1390.26 192.929 1363.15 226.189 L 1220.02 403.698 C 1135.79 509.007 1046.91 612.355 962.238 717.851 L 847.321 859.148 C 831.099 878.924 816.04 899.783 798.749 918.602 C 785.147 933.406 767.482 935.347 752.573 921.177 C 741.328 910.664 717.342 878.44 706.812 865.044 L 623.086 759.095 L 556.917 675.968 C 550.436 667.865 530.317 643.925 526.607 637.292 C 526.417 631.677 524.049 632.731 520.958 626.284 L 522.453 623.956 C 546.03 651.618 569.541 682.237 592.176 710.847 C 618.415 744.01 645.676 777.068 671.495 810.47 L 726.37 880.119 C 736.386 892.703 747.868 909.537 759.877 919.567 z"/>
<path transform="translate(0,0)" fill="rgb(132,212,26)" d="M 301.529 287.315 C 312.602 286.518 321.724 287.732 329.847 295.983 C 341.544 307.866 353.916 325.305 364.304 338.835 C 381.961 361.638 399.744 384.342 417.653 406.946 L 671.125 726.234 C 694.512 755.5 716.64 785.318 740.064 814.477 C 749.799 826.595 762.798 843.998 773.547 854.654 L 782.337 846.754 L 784.254 847.324 C 786.27 845.716 787.494 844.626 789.35 842.839 L 791.703 843.27 C 786.054 850.852 778.597 858.948 772.256 866.152 L 335.716 313.584 C 330.304 306.612 321.117 292.966 312.452 291.879 L 301.529 287.315 z"/>
<path transform="translate(0,0)" fill="rgb(132,212,26)" d="M 1317.96 1318.44 C 1320.43 1314.24 1323.15 1310.26 1326.36 1306.57 C 1373.64 1252.3 1421 1198.15 1467.45 1143.17 C 1469.5 1140.75 1472.16 1137.97 1475.57 1138.13 C 1480.85 1138.39 1486.25 1138.97 1490.49 1142.53 L 1486.99 1144.5 C 1491.45 1144.56 1506.98 1143.92 1509.74 1145.61 C 1499.69 1145.56 1484.05 1145.08 1474.67 1146.78 C 1462.26 1158.44 1443.41 1183.71 1431.57 1197.87 L 1352.56 1290.9 C 1346.88 1297.18 1341.38 1303.39 1337.48 1311.02 C 1342.08 1311.49 1347.56 1312.24 1352.08 1312.11 C 1359.96 1312.55 1367.85 1312.82 1375.74 1312.93 C 1451.27 1311.94 1529.1 1312.86 1604.8 1312.93 C 1626.31 1312.94 1647.83 1312.83 1669.33 1312.62 C 1676.84 1312.56 1696.64 1312.01 1703.09 1312.87 C 1697.89 1313.26 1692.12 1313.38 1687.03 1314.04 C 1646.79 1319.21 1605.88 1317.91 1565.26 1318.13 C 1558.07 1319.12 1536.67 1318.97 1528.52 1318.99 L 1462.06 1319.02 L 1375.52 1319.01 C 1356.12 1319.06 1337.3 1319.88 1317.96 1318.44 z"/>
<path transform="translate(0,0)" fill="rgb(150,230,23)" d="M 279.03 1012.4 C 278.317 1006.5 278.674 989.299 278.679 982.867 L 278.753 923.786 L 278.769 736.674 L 278.936 440.541 L 278.954 359.911 C 278.917 341.741 275.921 313.665 284.72 298.322 C 286.031 300.333 287.157 302.165 288.697 304.02 C 281.607 317.746 283.705 385.372 283.881 404.612 L 284.056 495.264 L 283.893 861.985 C 283.673 900.355 280.359 936.093 280.385 974.113 C 280.396 989.317 283.72 1003.87 283.777 1018.6 C 283.991 1073.95 283.882 1129.42 283.984 1184.77 L 284.148 1231.77 C 284.174 1237.09 284.533 1252.04 283.967 1256.71 C 281.552 1254.17 283.796 1093.75 282.595 1074 C 281.824 1061.31 280.274 1042.63 280.28 1029.42 C 280.283 1023.75 280.59 1018.02 279.03 1012.4 z"/>
<path transform="translate(0,0)" fill="rgb(132,212,26)" d="M 532.476 881.813 C 538.014 883.135 546.434 886.083 550.428 890.225 C 566.977 907.387 580.232 927.89 594.913 946.735 C 649.861 1017.27 705.538 1087.22 761.141 1157.22 C 764.814 1161.84 769.965 1166.63 774.61 1170.32 C 782.388 1164.65 785.848 1159.6 790.939 1155.64 C 795.457 1154.34 798.09 1150.98 801.404 1147.74 C 801.323 1149.11 777.573 1177.86 774.641 1180.67 C 772.24 1179.81 771.579 1178.74 769.862 1176.87 L 768.005 1176.69 C 760.482 1169.55 749.153 1153.97 742.272 1145.26 L 697.185 1088.34 L 595.05 960.201 C 579.284 940.093 564.465 918.964 548.87 898.76 C 545.204 894.01 537.67 887.893 533.098 882.553 L 532.476 881.813 z"/>
<path transform="translate(0,0)" fill="rgb(132,212,26)" d="M 331.909 392.306 L 333.109 390.586 C 340.883 393.584 369.527 431.369 377.119 440.879 L 436.056 514.961 C 444.417 525.434 469.198 552.977 475.313 564.341 C 482.451 572.837 488.243 581.133 495.023 589.638 C 494.454 591.395 493.764 593.854 493.005 595.462 C 486.673 587.665 476.072 574.856 470.664 566.811 C 462.245 557.726 453.45 545.515 445.485 535.716 L 386.991 463.115 C 373.047 445.896 360.048 429.346 344.664 413.323 C 343.216 415.982 342.755 418.338 342.705 421.317 C 342.043 460.533 342.182 500.268 342.121 539.467 L 341.821 776.743 C 341.747 795.446 342.526 823.546 341.142 841.465 C 340.139 834.553 340.489 816.356 340.49 808.779 L 340.493 747.67 C 340.483 661.02 341.5 574.46 339.366 487.848 C 339.268 483.861 339.609 478.147 338.176 474.542 L 336.543 475.271 C 329.775 486.917 337.194 515.84 334.65 525.975 C 332.216 508.565 332.409 475.64 332.07 457.123 C 331.739 439.017 330.579 409.644 331.909 392.306 z"/>
<path transform="translate(0,0)" fill="rgb(132,212,26)" d="M 475.313 564.341 C 482.451 572.837 488.243 581.133 495.023 589.638 C 494.454 591.395 493.764 593.854 493.005 595.462 C 486.673 587.665 476.072 574.856 470.664 566.811 C 474.657 566.591 475.781 572.307 480.4 573.532 C 478.236 571.661 475.745 567.269 475.313 564.341 z"/>
<path transform="translate(0,0)" fill="rgb(132,212,26)" d="M 1410.35 1131.86 C 1417.05 1131.55 1416.45 1126.31 1422.76 1121.64 L 1425.14 1123.28 C 1338.68 1221.83 1255.63 1323.79 1165.96 1419.5 C 1150.29 1436.22 1145.83 1423.89 1129.83 1421.95 C 1136.82 1421.66 1150.31 1423.18 1155.43 1418.63 C 1175.01 1401.21 1197.1 1375.4 1214.43 1355.76 L 1338.22 1213.17 C 1359.24 1188.81 1388.07 1153.38 1410.35 1131.86 z"/>
<path transform="translate(0,0)" fill="rgb(132,212,26)" d="M 1907.28 1042.75 C 1907.01 1042.92 1942.65 1036.32 1945.41 1036.07 C 1944.39 1073.05 1945.53 1113.54 1945.96 1150.55 C 1946.23 1188.5 1946.27 1226.45 1946.08 1264.4 C 1946.07 1272.35 1946.97 1312.52 1945.31 1317.52 C 1942.45 1319.29 1943.9 1319.1 1940.86 1318.42 C 1939.66 1316.51 1938.5 1314.56 1937.4 1312.59 C 1934.4 1312.4 1930.68 1312.28 1927.76 1311.95 C 1930.27 1311.59 1934.7 1311.32 1936.47 1309.86 C 1937.31 1295.53 1936.9 1281.09 1937.04 1266.71 C 1937.41 1241.8 1937.63 1216.88 1937.7 1191.96 C 1937.82 1143.22 1938.73 1091.41 1937.75 1042.92 C 1927.71 1042.66 1917.45 1042.96 1907.28 1042.75 z"/>
<path transform="translate(0,0)" fill="rgb(150,230,23)" fill-opacity="0.988235" d="M 1460.59 624.836 C 1511.44 627.664 1565.08 625.675 1616 624.14 C 1630.73 623.696 1646.48 624.671 1661.37 624.714 L 1777.02 623.998 C 1774.58 624.349 1771.29 624.483 1769.37 625.668 C 1771.92 625.809 1777.59 625.929 1779.78 626.625 C 1777.38 627.766 1770.75 631.843 1769.26 632.277 C 1691.47 634.614 1612.53 631.747 1534.6 633.04 C 1518.82 633.302 1502.43 633.256 1486.64 632.856 C 1477.72 630.104 1469.69 628.154 1460.59 624.836 z"/>
<path transform="translate(0,0)" fill="rgb(132,212,26)" d="M 1777.02 623.998 C 1781.5 623.573 1785.14 623.167 1789.58 622.439 C 1791.79 666.906 1789.99 715.525 1790.37 760.289 C 1790.42 765.805 1790.5 794.689 1789.61 798.46 C 1786.28 798.949 1780.1 797.094 1777.13 795.799 C 1770.78 793.02 1743.76 797.259 1739.24 794.261 C 1749.24 793.414 1769.91 793.901 1781.01 793.707 C 1781.2 739.044 1781.78 687.034 1781.04 632.113 C 1777.21 632.046 1773.12 632.201 1769.26 632.277 C 1770.75 631.843 1777.38 627.766 1779.78 626.625 C 1777.59 625.929 1771.92 625.809 1769.37 625.668 C 1771.29 624.483 1774.58 624.349 1777.02 623.998 z"/>
<path transform="translate(0,0)" fill="rgb(132,212,26)" d="M 341.156 947.49 C 342.09 959.826 341.669 976.398 341.65 988.994 L 341.573 1058.55 L 342.181 1267.43 C 342.158 1286.73 340.61 1340.59 343.466 1357.19 C 344.73 1364.55 392.138 1412.83 400.336 1421.15 C 420.572 1422.91 440.934 1421.14 460.551 1422.14 C 450.235 1424.17 435.425 1422.17 424.528 1423.71 C 418.146 1424.62 404.294 1429.8 399.595 1428.64 C 391.287 1426.61 355.493 1386.52 352.218 1381.02 C 357.33 1383.22 361.339 1390.37 366.75 1395.24 C 368.763 1395.86 369.446 1395.49 371.533 1395.06 C 369.404 1390.67 348.067 1369.97 343.789 1363.88 C 339.381 1357.6 335.753 1354.22 334.918 1345.04 C 333.887 1333.69 339.485 1320.58 339.533 1310.38 C 339.627 1290.41 339.543 1270 339.545 1250.08 L 340.616 1060.02 L 340.58 989.519 C 340.576 977.182 340.087 959.459 341.156 947.49 z"/>
<path transform="translate(0,0)" fill="rgb(150,230,23)" d="M 1699.37 275.218 C 1787.89 274.22 1785.41 276.754 1784.54 366.148 C 1784.5 370.156 1783.63 373.514 1785.24 377.237 C 1786.39 377.801 1787.57 378.442 1788.76 378.858 C 1784.8 379.707 1782.03 381.845 1778.47 381.121 C 1774.19 373.089 1781.11 307.445 1771.8 292.437 C 1763.33 277.297 1738.31 278.953 1723.04 276.737 C 1715.95 275.708 1706.85 277.778 1699.37 275.218 z"/>
<path transform="translate(0,0)" fill="rgb(132,212,26)" d="M 1436.06 291.931 C 1436.79 292.691 1439.24 295.138 1439.72 295.827 C 1437.33 306.29 1437.27 324.178 1436.95 335.392 C 1436.35 355.674 1435.92 375.961 1435.67 396.25 C 1434.2 398.848 1433.59 421.503 1431.02 428.623 C 1429.87 401.845 1431.44 373.196 1430.77 346.203 C 1430.42 332.197 1430 303.996 1436.06 291.931 z"/>
<path transform="translate(0,0)" fill="rgb(150,230,23)" d="M 790.939 1155.64 C 805.413 1136.79 823.318 1117 838.005 1097.64 C 843.614 1090.25 865.841 1062.05 871.279 1056.87 C 870.953 1062.03 850.366 1085.61 845.112 1094.02 C 850.52 1088.11 855.382 1082.31 860.512 1076.18 C 851.852 1090.29 834.027 1111.98 822.76 1125.44 C 808.415 1142.59 789.578 1167.74 774.38 1183.72 C 772.963 1182.27 768.699 1178.18 768.005 1176.69 L 769.862 1176.87 C 771.579 1178.74 772.24 1179.81 774.641 1180.67 C 777.573 1177.86 801.323 1149.11 801.404 1147.74 C 798.09 1150.98 795.457 1154.34 790.939 1155.64 z"/>
<path transform="translate(0,0)" fill="rgb(150,230,23)" d="M 857.699 754.478 L 858.151 756.666 C 856.316 759.197 855.83 759.881 854.496 762.682 L 855.394 765.152 C 852.345 769.916 794.743 841.767 791.703 843.27 L 789.35 842.839 C 787.494 844.626 786.27 845.716 784.254 847.324 L 782.337 846.754 C 808.389 816.853 832.159 783.572 857.699 754.478 z"/>
<path transform="translate(0,0)" fill="rgb(150,230,23)" d="M 1431.02 428.623 C 1433.59 421.503 1434.2 398.848 1435.67 396.25 L 1434.92 515.58 C 1434.9 529.133 1436.38 548.091 1435.96 560.587 C 1431.95 547.144 1433.71 527.061 1430.93 516.549 C 1430.23 510.959 1430.51 491.784 1430.56 485.494 C 1430.71 467.098 1430.03 446.898 1431.02 428.623 z"/>
<path transform="translate(0,0)" fill="rgb(150,230,23)" d="M 1431.27 953.718 C 1430.81 945.995 1430.5 911.358 1430.95 903.343 C 1432.37 878.176 1425.05 820.45 1441.86 803.447 C 1445.21 810.868 1437.91 822.67 1437.38 831.74 C 1437.05 837.425 1436.73 849.527 1435.68 854.684 C 1429.09 887.188 1434.19 919.871 1432.21 952.421 L 1431.27 953.718 z"/>
<path transform="translate(0,0)" fill="rgb(150,230,23)" d="M 1436.06 291.931 C 1449.32 271.69 1468.41 274.78 1490.14 274.66 C 1499.77 274.607 1509.46 274.936 1519.09 275.018 L 1621.72 275.384 C 1618.8 277.407 1598.02 276.525 1593.04 276.483 L 1529.69 276.401 C 1516.25 276.393 1500.68 275.596 1487.5 277.29 C 1474.68 278.939 1461.38 281.076 1448.63 283.243 C 1443.67 288.057 1443.1 289.742 1439.72 295.827 C 1439.24 295.138 1436.79 292.691 1436.06 291.931 z"/>
<path transform="translate(0,0)" fill="rgb(132,212,26)" d="M 331.094 1357.17 C 329.998 1333.66 331.893 1300.24 332.033 1275.71 C 331.95 1236.56 332.185 1197.42 332.738 1158.27 C 332.834 1152.94 332.945 1128.26 333.992 1124.63 C 335.112 1182.54 333.502 1242.37 333.348 1300.6 C 333.218 1312.76 332.979 1324.91 332.632 1337.06 C 332.473 1342.19 332.125 1348.08 332.18 1353.2 C 332.215 1356.45 336.419 1361.15 338.752 1363.47 C 342.533 1367.23 348.302 1371.08 350.709 1375.92 C 351.537 1377.59 351.432 1379.39 352.218 1381.02 C 347.021 1377.75 334.462 1362.38 331.094 1357.17 z"/>
<path transform="translate(0,0)" fill="rgb(132,212,26)" d="M 1431.18 1019.32 C 1433.35 1022.42 1432.53 1045.31 1432.31 1050.68 C 1431.48 1070.63 1437.23 1088.24 1436.96 1107.89 C 1433.56 1113.82 1430.36 1118.7 1425.14 1123.28 L 1422.76 1121.64 C 1416.45 1126.31 1417.05 1131.55 1410.35 1131.86 C 1416.06 1124.65 1424.04 1118.47 1428.28 1110.19 C 1434.29 1098.45 1430.74 1036.81 1431.18 1019.32 z"/>
<path transform="translate(0,0)" fill="rgb(132,212,26)" d="M 1430.93 516.549 C 1433.71 527.061 1431.95 547.144 1435.96 560.587 C 1436.69 573.111 1436.47 588.674 1437.49 600.274 C 1435.63 603.333 1434.28 603.469 1432.92 605.864 C 1429.91 594.284 1430.31 531.346 1430.93 516.549 z"/>
<path transform="translate(0,0)" fill="rgb(132,212,26)" d="M 1437.49 600.274 C 1439.33 610.515 1440.03 612.012 1447.03 619.7 C 1453.11 623 1453.92 623.191 1460.59 624.836 C 1469.69 628.154 1477.72 630.104 1486.64 632.856 C 1471.67 633.416 1453.1 633.101 1441.51 622.419 C 1436.27 617.818 1434.2 612.468 1432.92 605.864 C 1434.28 603.469 1435.63 603.333 1437.49 600.274 z"/>
<path transform="translate(0,0)" fill="rgb(150,230,23)" d="M 508.775 606.82 C 512.483 610.488 519.899 619.457 522.453 623.956 L 520.958 626.284 C 524.049 632.731 526.417 631.677 526.607 637.292 C 519.146 629.272 510.99 618.124 504.164 609.263 C 506.702 608.647 507.1 608.823 508.775 606.82 z"/>
<path transform="translate(0,0)" fill="rgb(150,230,23)" d="M 284.72 298.322 C 290.843 291.862 293.257 290.682 301.529 287.315 L 312.452 291.879 C 301.198 292.998 295.566 294.189 288.697 304.02 C 287.157 302.165 286.031 300.333 284.72 298.322 z"/>
<path transform="translate(0,0)" fill="rgb(132,212,26)" d="M 495.023 589.638 C 499.079 594.494 505.48 601.711 508.775 606.82 C 507.1 608.823 506.702 608.647 504.164 609.263 C 500.48 605.241 496.446 599.835 493.005 595.462 C 493.764 593.854 494.454 591.395 495.023 589.638 z"/>
<path transform="translate(0,0)" fill="rgb(186,251,20)" d="M 1128.23 61.7039 C 1132.83 57.5023 1141.11 50.5647 1147.19 49.336 C 1166.62 45.4072 1192.45 46.603 1212.44 46.6759 C 1236.08 46.6845 1259.73 46.8419 1283.38 47.1481 C 1293.61 47.1084 1331.69 46.0473 1339.2 49.4594 C 1340.35 51.6581 1340.56 52.7058 1339.86 55.1534 C 1336.7 66.3233 1308.43 101.347 1298.62 106.405 C 1288.28 111.737 1188.57 107.205 1166.46 107.967 L 1165.78 108.7 C 1158.06 117.168 1148.48 130.789 1140.81 140.187 C 1079.11 217.304 1016.82 293.945 953.943 370.105 C 933.691 394.47 914.18 419.855 893.597 443.932 C 891.128 446.82 888.789 449.055 885.175 449.792 C 877.867 447.787 850.216 412.266 852.227 405.182 C 855.724 397.016 869.768 381.434 876.201 373.866 C 890.884 355.792 905.379 337.566 919.685 319.191 C 923.358 314.267 928.701 308.191 932.709 303.349 C 937.498 295.985 954.118 276.549 960.519 268.624 C 979.039 245.499 997.733 222.513 1016.6 199.668 C 1017.63 197.29 1030.97 181.431 1033.49 178.471 C 1060.94 146.246 1085.37 110.601 1113.03 78.6899 C 1118.15 72.3325 1122.63 67.5801 1128.23 61.7039 z"/>
<path transform="translate(0,0)" fill="rgb(132,212,26)" d="M 1283.38 47.1481 C 1293.61 47.1084 1331.69 46.0473 1339.2 49.4594 C 1340.35 51.6581 1340.56 52.7058 1339.86 55.1534 C 1336.7 66.3233 1308.43 101.347 1298.62 106.405 C 1288.28 111.737 1188.57 107.205 1166.46 107.967 L 1165.78 108.7 C 1158.06 117.168 1148.48 130.789 1140.81 140.187 C 1079.11 217.304 1016.82 293.945 953.943 370.105 C 933.691 394.47 914.18 419.855 893.597 443.932 C 891.128 446.82 888.789 449.055 885.175 449.792 C 877.867 447.787 850.216 412.266 852.227 405.182 C 854.768 407.816 856.401 406.684 859.359 408.468 C 865.85 415.781 876.593 431.551 883.775 440.577 C 902.949 418.706 922.538 391.913 941.318 369.092 L 1091.29 186.175 L 1137.18 129.446 C 1144.75 120.032 1154.79 106.46 1162.97 98.153 C 1207.09 98.0962 1251.15 99.6531 1295.58 98.4628 C 1306.05 90.0955 1322.13 64.4328 1330.28 52.3788 C 1319.13 51.2933 1292.91 49.8215 1283.38 47.1481 z"/>
<path transform="translate(0,0)" fill="rgb(132,212,26)" d="M 1113.03 78.6899 L 1115.26 82.3045 L 1116.42 81.6766 C 1117.7 80.9942 1118 80.8492 1119.45 80.4722 C 1113.97 88.1688 1107.73 95.7996 1101.81 103.168 C 1073.9 137.851 1046.09 172.56 1017.35 206.567 C 1016.4 204.778 1016.65 201.91 1016.6 199.668 C 1017.63 197.29 1030.97 181.431 1033.49 178.471 C 1060.94 146.246 1085.37 110.601 1113.03 78.6899 z"/>
<path transform="translate(0,0)" fill="rgb(132,212,26)" d="M 1016.6 199.668 C 1016.65 201.91 1016.4 204.778 1017.35 206.567 C 1003.58 225.789 989.072 242.477 974.08 260.524 C 960.825 276.479 949.161 293.232 935.06 308.884 C 933.855 307.058 933.461 305.435 932.709 303.349 C 937.498 295.985 954.118 276.549 960.519 268.624 C 979.039 245.499 997.733 222.513 1016.6 199.668 z"/>
<path transform="translate(0,0)" fill="rgb(150,230,23)" d="M 932.709 303.349 C 933.461 305.435 933.855 307.058 935.06 308.884 C 931.743 313.619 927.217 318.488 923.341 322.881 C 910.623 340.112 895.772 358.529 882.211 375.22 L 876.201 373.866 C 890.884 355.792 905.379 337.566 919.685 319.191 C 923.358 314.267 928.701 308.191 932.709 303.349 z"/>
<path transform="translate(0,0)" fill="rgb(150,230,23)" d="M 852.227 405.182 C 855.724 397.016 869.768 381.434 876.201 373.866 L 882.211 375.22 C 876.249 382.288 859.273 400.269 859.359 408.468 C 856.401 406.684 854.768 407.816 852.227 405.182 z"/>
<path transform="translate(0,0)" fill="rgb(150,230,23)" d="M 1113.03 78.6899 C 1118.15 72.3325 1122.63 67.5801 1128.23 61.7039 C 1129.17 62.977 1130.71 64.2553 1130.34 65.7448 C 1129.24 70.1449 1123.08 78.1564 1119.45 80.4722 C 1118 80.8492 1117.7 80.9942 1116.42 81.6766 L 1115.26 82.3045 L 1113.03 78.6899 z"/>
<path transform="translate(0,0)" fill="rgb(150,230,23)" fill-opacity="0.988235" d="M 61.2532 55.8861 C 63.1333 57.9297 62.0375 57.2796 64.5539 58.0677 C 63.3316 61.9027 57.9747 78.3146 57.8049 81.4401 C 57.1686 93.1536 57.2592 107.651 57.1514 119.484 L 56.7903 210.496 C 56.6653 235.001 55.7867 255.563 53.3261 279.907 C 52.5491 287.594 52.9299 310.481 53.7498 318.259 C 58.4396 362.744 57.0107 407.421 57.0155 452.261 L 56.9197 895.705 C 56.4926 969.267 56.4936 1042.83 56.9229 1116.39 C 56.434 1113.76 56.3212 1112.19 55.0262 1109.81 C 55.0409 1113.2 55.212 1116.09 54.573 1119.42 C 53.986 1113.45 54.3826 1108.79 50.7148 1104.71 C 48.532 1096.43 49.9263 1044.69 49.933 1032.74 L 49.9957 837.062 L 49.5076 357.877 L 49.8022 187.662 C 49.8465 155.241 49.478 122.372 50.2821 89.9762 C 50.5799 77.9781 51.9268 64.3471 61.2532 55.8861 z"/>
<path transform="translate(0,0)" fill="rgb(150,230,23)" fill-opacity="0.988235" d="M 1491.13 341.968 C 1490.16 336.721 1488.66 334.859 1487.78 328.6 L 1488.81 327.853 C 1494.22 330.544 1531.71 329.152 1540.51 329.215 L 1713.64 329.109 C 1704.76 332.322 1686.74 328.93 1682.05 333.471 L 1680.32 337.467 C 1633.21 338.067 1586.1 338.151 1538.98 337.721 C 1533.08 337.691 1494.4 336.619 1492.01 338.442 L 1491.13 341.968 z"/>
<path transform="translate(0,0)" fill="rgb(150,230,23)" d="M 1713.64 329.109 L 1729.7 328.34 C 1728 330.597 1724.62 335.826 1722.33 336.653 C 1716.89 336.079 1687.56 337.296 1680.32 337.467 L 1682.05 333.471 C 1686.74 328.93 1704.76 332.322 1713.64 329.109 z"/>
</svg>